<svg xmlns="http://www.w3.org/2000/svg" viewBox="0 0 1400 820">
  <defs><linearGradient id="g" x1="0" x2="1"><stop stop-color="#38bdf8"/><stop offset="1" stop-color="#22c55e"/></linearGradient><filter id="glow"><feGaussianBlur stdDeviation="6" result="b"/><feMerge><feMergeNode in="b"/><feMergeNode in="SourceGraphic"/></feMerge></filter></defs>
  <rect width="1400" height="820" fill="#030712"/>
  <circle cx="120" cy="100" r="260" fill="#38bdf8" opacity=".12"/><circle cx="1260" cy="720" r="300" fill="#22c55e" opacity=".12"/>
  <text x="70" y="90" fill="#e6f1ff" font-family="Inter,Arial" font-size="48" font-weight="900">AeroMind Sentinel Architecture</text>
  <text x="70" y="136" fill="#94a3b8" font-family="Inter,Arial" font-size="24">AeroMind AI core + highway emergency response product layer</text>
  <g font-family="Inter,Arial" font-size="22" font-weight="800" text-anchor="middle" filter="url(#glow)">
    <g transform="translate(120,230)"><rect width="230" height="100" rx="24" fill="#0f172a" stroke="#38bdf8"/><text x="115" y="45" fill="#e6f1ff">Drone Camera</text><text x="115" y="72" fill="#94a3b8" font-size="16">+ Telemetry</text></g>
    <g transform="translate(420,230)"><rect width="230" height="100" rx="24" fill="#0f172a" stroke="#38bdf8"/><text x="115" y="45" fill="#e6f1ff">YOLOv8 + SAHI</text><text x="115" y="72" fill="#94a3b8" font-size="16">Detection</text></g>
    <g transform="translate(720,230)"><rect width="230" height="100" rx="24" fill="#0f172a" stroke="#38bdf8"/><text x="115" y="45" fill="#e6f1ff">BoT-SORT + OSNet</text><text x="115" y="72" fill="#94a3b8" font-size="16">Tracking</text></g>
    <g transform="translate(1020,230)"><rect width="260" height="100" rx="24" fill="#0f172a" stroke="#22c55e"/><text x="130" y="45" fill="#e6f1ff">Highway Risk</text><text x="130" y="72" fill="#94a3b8" font-size="16">Analysis Engine</text></g>
    <g transform="translate(350,520)"><rect width="280" height="110" rx="24" fill="#0f172a" stroke="#22c55e"/><text x="140" y="48" fill="#e6f1ff">PPO Navigation</text><text x="140" y="78" fill="#94a3b8" font-size="16">Energy-aware repositioning</text></g>
    <g transform="translate(760,520)"><rect width="300" height="110" rx="24" fill="#0f172a" stroke="#22c55e"/><text x="150" y="48" fill="#e6f1ff">Emergency Dashboard</text><text x="150" y="78" fill="#94a3b8" font-size="16">Alerts + response support</text></g>
  </g>
  <g stroke="url(#g)" stroke-width="8" fill="none" marker-end="url(#arrow)"><defs><marker id="arrow" markerWidth="12" markerHeight="12" refX="10" refY="6" orient="auto"><path d="M0,0 L12,6 L0,12 Z" fill="#22c55e"/></marker></defs><path d="M350 280h60"/><path d="M650 280h60"/><path d="M950 280h60"/><path d="M1150 340 C1040 470 905 500 890 515"/><path d="M760 575H650"/></g>
</svg>
